<?xml version="1.0" encoding="utf-8"?>
<!-- Generator: Adobe Illustrator 15.1.0, SVG Export Plug-In . SVG Version: 6.00 Build 0)  -->
<!DOCTYPE svg PUBLIC "-//W3C//DTD SVG 1.1//EN" "http://www.w3.org/Graphics/SVG/1.1/DTD/svg11.dtd">
<svg version="1.1"
	 id="Layer_1" xmlns:cc="http://creativecommons.org/ns#" xmlns:svg="http://www.w3.org/2000/svg" xmlns:rdf="http://www.w3.org/1999/02/22-rdf-syntax-ns#" xmlns:dc="http://purl.org/dc/elements/1.1/"
	 xmlns="http://www.w3.org/2000/svg" xmlns:xlink="http://www.w3.org/1999/xlink" x="0px" y="0px" width="128px" height="128px"
	 viewBox="0 0 128 128" enable-background="new 0 0 128 128" xml:space="preserve">
<path fill="#2CD069" d="M127.918,63.958c0,35.323-28.636,63.958-63.959,63.958S0,99.281,0,63.958C0,28.635,28.635,0,63.958,0
	S127.918,28.635,127.918,63.958"/>
<path fill="#FFFFFF" d="M55.042,92.556c-1.723,0-4.07-2.544-5.146-4.146l-0.757-1.131l-4.645,2.754
	c-0.415-0.58-0.735-1.127-0.906-1.466l-0.691-1.38l-6.717,3.982c-0.652-1.569,0.513-4.604,3.597-11.158
	c1.456-3.096,1.537-5.703,0.238-7.75c-2.152-3.39-7.488-4.104-11.583-4.104h-1.436v2.871h1.436c4.704,0,8.042,1.011,9.159,2.771
	c0.739,1.162,0.601,2.841-0.411,4.99c-1.331,2.827-2.412,5.192-3.127,7.205c-9.367-7.396-11.969-20.043-12.144-31.116
	c0.878,3.808,2.3,7.609,4.539,10.952l0.799,1.193l2.385-1.597l-0.799-1.193c-7.939-11.859-4.608-30.938-4.573-31.13l-2.803-0.612
	c-0.105,0.412-2.598,10.235-2.457,22.129c0.187,15.911,5.112,27.796,14.239,34.383c-0.349,2.201,0.103,3.85,1.706,5.147l0.775,0.627
	l6.074-3.599c1.086,1.668,3.224,4.248,6.038,4.248h1.435v-2.871H47.83c-0.422,0-0.848-0.162-1.259-0.417l1.75-1.037
	c1.284,1.605,3.878,4.325,6.721,4.325h1.435v-2.871H55.042z"/>
<path fill="#FFFFFF" d="M59.46,92.351l-1.444,0.186l0.374,2.891l1.446-0.188c7.718-1.002,14.958-4.774,18.223-10.215l-0.75-3.845
	C77.309,81.18,72.381,90.392,59.46,92.351"/>
<path fill="#FFFFFF" d="M98.582,87.03l-0.768-1.147l-4.737,2.808c-0.291-0.355-0.547-0.703-0.754-1.014l-0.77-1.146l-6.742,3.994
	c-2.136-2.828-4.982-11.21-2.178-17.901c5.352-2.151,7.07-4.606,8.731-6.983c1.368-1.961,2.694-3.824,6.364-5.665
	c-1.223-0.416-2.54-0.857-3.794-1.163c-2.565,1.744-3.82,3.528-4.961,5.159c-1.062,1.521-2.035,2.906-4.023,4.216l-0.004-0.007
	l-1.29,0.679c-4.047,2.127-7.414,2.426-9.643,2.623l-1.82,0.166l0.265,2.9l1.812-0.164c1.312-0.116,2.985-0.268,4.95-0.744
	c-2.219,8.272,1.705,17.668,4.418,19.864l0.788,0.638l6.296-3.73c0.443,0.554,1.045,1.239,1.755,1.903l0.053,0.088l0.025-0.016
	c1.365,1.256,3.123,2.412,4.989,2.412h1.458v-2.888c1.338,1.188,3.021,2.241,4.804,2.241h1.457v-2.914h-1.457
	C102.057,91.238,99.673,88.656,98.582,87.03 M97.545,91.886c-0.717,0-1.544-0.44-2.345-1.066l1.784-1.058
	c0.491,0.617,1.176,1.395,1.991,2.124H97.545z"/>
<rect x="92.919" y="47.215" transform="matrix(0.3463 -0.9381 0.9381 0.3463 14.6994 121.2843)" fill="#FFFFFF" width="2.913" height="5.76"/>
<path fill="#FFFFFF" d="M107.533,48.932c-2.589-0.224-3.902-1.135-5.57-2.29c-2.475-1.718-5.284-3.665-12.403-3.665l-0.326,0.037
	c-2.339,0.541-4.638,2.034-6.983,4.139l-6.408-0.823L75.47,49.22l4.128,0.529c-0.748,0.786-1.504,1.617-2.27,2.488l-5.096-1.209
	l-0.672,2.834l3.626,0.86c-0.956,1.129-1.903,2.264-2.854,3.397l-3.896-1.601l-1.106,2.694l3.03,1.245
	c-1.058,1.239-2.131,2.473-3.222,3.675l-2.688-1.977l-1.728,2.347l2.41,1.772c-1.136,1.177-2.292,2.3-3.469,3.342l-1.462-2.272
	l-2.451,1.575l1.652,2.569c-1.18,0.909-2.379,1.721-3.601,2.409l-0.333-2.516l-2.888,0.381l0.458,3.453
	c-1.196,0.466-2.411,0.801-3.648,0.979l0.727-2.896l-2.826-0.706l-0.93,3.708c-0.641-0.047-1.287-0.135-1.938-0.273l-1.917-0.43
	l-0.743,2.785l2.054,0.496c10.44,2.226,19.114-5.751,25.559-12.872c2.025-2.238,3.967-4.554,5.904-6.869
	c5.229-6.245,10.173-12.146,14.452-13.248c6.077,0.03,8.361,1.613,10.57,3.146c1.505,1.043,3.054,2.117,5.533,2.598
	c-0.259,1.87-0.889,3.261-1.844,4.066c-2.144,1.8-5.043,0.056-7.333-0.588c-3.049-0.857-6.645-1.802-9.804-1.022
	c1.032,1.856,1.318,2.711,1.318,2.711c1.962-0.403,5.551,0.496,7.958,1.314c1.629,0.556,3.167,1.079,4.41,1.239
	c2.059,0.259,3.899-0.226,5.325-1.425c1.81-1.522,2.846-4.11,2.996-7.483l0.062-1.396L107.533,48.932z"/>
</svg>
