<?xml version="1.0" encoding="utf-8"?>
<!-- Generator: Adobe Illustrator 15.1.0, SVG Export Plug-In . SVG Version: 6.00 Build 0)  -->
<!DOCTYPE svg PUBLIC "-//W3C//DTD SVG 1.1//EN" "http://www.w3.org/Graphics/SVG/1.1/DTD/svg11.dtd">
<svg version="1.1"
	 id="Layer_1" xmlns:svg="http://www.w3.org/2000/svg" xmlns:rdf="http://www.w3.org/1999/02/22-rdf-syntax-ns#" xmlns:cc="http://creativecommons.org/ns#" xmlns:dc="http://purl.org/dc/elements/1.1/"
	 xmlns="http://www.w3.org/2000/svg" xmlns:xlink="http://www.w3.org/1999/xlink" x="0px" y="0px" width="128px" height="128px"
	 viewBox="0 0 128 128" enable-background="new 0 0 128 128" xml:space="preserve">
<g>
	<path fill-rule="evenodd" clip-rule="evenodd" fill="#FFFFFF" d="M59.625,0C24.993,5.118,5.118,24.993,0,59.625
		C0,39.75,0,19.875,0,0C19.875,0,39.75,0,59.625,0z"/>
	<path fill-rule="evenodd" clip-rule="evenodd" fill="#FFFFFF" d="M69.188,0c19.688,0,39.375,0,59.062,0c0,18.75,0,37.5,0,56.25
		C121.629,24.434,102.725,4.9,69.188,0z"/>
	<path fill-rule="evenodd" clip-rule="evenodd" fill="#FFFFFF" d="M73.125,23.062c-11.4,26.307,5.848,52.952,35.438,49.5
		c-0.05,5.077-4.501,3.632-8.438,2.812c-9.604,4.156-24.667,6.306-34.875,1.125c-5.026,1.485-10.827,3.402-16.875,3.375
		c-6.282-0.029-12.703-4.15-18.562-4.5c-3.858-0.229-8.711,2.724-8.438-2.812c30.963,3.569,46.07-23.882,35.438-49.5
		C62.059,20.072,67.999,19.791,73.125,23.062z M54,75.938c4.245,0.495,6.762-0.738,9-2.25c0.326-1.826-0.383-2.617-0.562-3.938
		C57.299,68.081,55.421,72.271,54,75.938z M67.5,69.75c-3.152,4.674,3.087,6.623,8.438,6.188c-0.963-2.225-1.913-4.462-3.375-6.188
		C69.873,69.496,70.189,69.496,67.5,69.75z"/>
	<path fill-rule="evenodd" clip-rule="evenodd" fill="#FFFFFF" d="M54.562,24.75c7.891,24.545-5.195,47.516-33.188,45
		c-1.029-5.231-0.691-12.241,0.562-16.875c3.637,5.861,8.728,12.071,16.875,10.688c14.664-2.491,14.512-29.066,3.375-36
		C45.889,26.201,48.809,24.059,54.562,24.75z"/>
	<path fill-rule="evenodd" clip-rule="evenodd" fill="#FFFFFF" d="M87.75,27.562c-12.912,7.694-10.51,38.564,7.875,36
		c5.749-0.802,8.677-5.536,11.812-10.125c2.485,3.748,1.656,11.045,1.125,16.312c-28.007,2.636-41.229-20.472-33.188-45
		C81.211,23.977,84.041,26.209,87.75,27.562z"/>
	<path fill-rule="evenodd" clip-rule="evenodd" fill="#FFFFFF" d="M47.25,52.875c-2.5-9.572-9.824-18.8-22.5-14.625
		c2.225-5.906,7-11.394,15.75-9C46.742,33.624,49.702,42.948,47.25,52.875z"/>
	<path fill-rule="evenodd" clip-rule="evenodd" fill="#FFFFFF" d="M104.625,38.25c-11.226-3.521-20.062,3.522-20.812,14.062
		c-5.291-7.571-0.003-19.456,5.625-23.062C97.818,27.052,103.215,31.707,104.625,38.25z"/>
	<path fill-rule="evenodd" clip-rule="evenodd" fill="#FFFFFF" d="M42.188,59.625c-11.282,5.956-22.284-6.075-17.438-18
		C34.795,33.166,49.127,47.672,42.188,59.625z M29.812,56.25c15.583,2.823,8.544-12.999-1.125-13.5
		C27.325,47.038,28.331,53.015,29.812,56.25z"/>
	<path fill-rule="evenodd" clip-rule="evenodd" fill="#FFFFFF" d="M105.75,42.75c2.959,12.114-6.041,21.459-17.438,17.438
		C79.097,49.562,96.321,31.275,105.75,42.75z M89.438,52.312c5.034,9.432,16.501,1.587,11.812-9.562
		C96.263,44.888,91.507,47.257,89.438,52.312z"/>
	<path fill-rule="evenodd" clip-rule="evenodd" fill="#19D263" d="M28.688,42.75c9.669,0.501,16.708,16.323,1.125,13.5
		C28.331,53.015,27.325,47.038,28.688,42.75z M37.125,52.312c-0.7-3.425-3.462-4.788-6.75-5.625
		C28.446,51.547,34.225,57.167,37.125,52.312z"/>
	<path fill-rule="evenodd" clip-rule="evenodd" fill="#19D263" d="M101.25,42.75c4.688,11.149-6.778,18.995-11.812,9.562
		C91.507,47.257,96.263,44.888,101.25,42.75z M98.438,46.688c-2.184,1.754-5.801,2.074-5.625,6.188
		C96.24,56.907,102.347,49.844,98.438,46.688z"/>
	<path fill-rule="evenodd" clip-rule="evenodd" fill="#FFFFFF" d="M30.375,46.688c3.288,0.837,6.05,2.2,6.75,5.625
		C34.225,57.167,28.446,51.547,30.375,46.688z"/>
	<path fill-rule="evenodd" clip-rule="evenodd" fill="#FFFFFF" d="M92.812,52.875c-0.176-4.113,3.441-4.433,5.625-6.188
		C102.347,49.844,96.24,56.907,92.812,52.875z"/>
	<path fill-rule="evenodd" clip-rule="evenodd" fill="#FFFFFF" d="M0,69.188c5.209,33.979,25.068,53.307,58.5,59.062
		c-19.5,0-39,0-58.5,0C0,108.562,0,88.875,0,69.188z"/>
	<path fill-rule="evenodd" clip-rule="evenodd" fill="#19D263" d="M62.438,69.75c0.179,1.32,0.889,2.111,0.562,3.938
		c-2.238,1.512-4.755,2.745-9,2.25C55.421,72.271,57.299,68.081,62.438,69.75z"/>
	<path fill-rule="evenodd" clip-rule="evenodd" fill="#19D263" d="M72.562,69.75c1.462,1.726,2.412,3.963,3.375,6.188
		c-5.351,0.436-11.589-1.514-8.438-6.188C70.189,69.496,69.873,69.496,72.562,69.75z"/>
	<path fill-rule="evenodd" clip-rule="evenodd" fill="#FFFFFF" d="M128.25,71.438c0,18.938,0,37.875,0,56.812c-19.5,0-39,0-58.5,0
		C102.804,122.866,121.98,103.605,128.25,71.438z"/>
	<path fill-rule="evenodd" clip-rule="evenodd" fill="#FFFFFF" d="M58.5,83.25c1.206,2.919,2.208,6.042,3.938,8.438
		c-7.157,1.468-10.078,7.172-14.625,11.25c-4.049-8.343-8.917-20.533-23.062-15.188c-1.08-1.545-1.323-3.928-1.688-6.188
		C33.646,77.265,44.212,87.327,58.5,83.25z"/>
	<path fill-rule="evenodd" clip-rule="evenodd" fill="#FFFFFF" d="M106.875,81.562c-0.258,1.992-1.251,3.249-1.125,5.625
		c-1.594-0.094-2.344-1.031-3.938-1.125c-14.459-2.459-14.331,9.669-19.688,16.312c-5.771-2.666-6.597-10.278-15.188-10.125
		c1.762-2.738,2.558-6.442,4.5-9C83.68,87.083,96.706,77.59,106.875,81.562z"/>
	<path fill-rule="evenodd" clip-rule="evenodd" fill="#FFFFFF" d="M69.188,82.125c-0.604,3.896-3.803,5.197-3.938,9.562
		c-1.63-3.245-4.477-5.273-4.5-10.125C63.675,81.065,67.039,80.555,69.188,82.125z"/>
	<path fill-rule="evenodd" clip-rule="evenodd" fill="#FFFFFF" d="M103.5,90.562c-3.931,3.382-8.281,6.344-14.062,7.875
		C90.121,92.116,96.794,87.292,103.5,90.562z"/>
	<path fill-rule="evenodd" clip-rule="evenodd" fill="#FFFFFF" d="M39.938,98.438c-4.392-1.8-10.875-4.494-12.375-7.312
		C33.913,89.154,39.699,92.439,39.938,98.438z"/>
	<path fill-rule="evenodd" clip-rule="evenodd" fill="#FFFFFF" d="M77.625,103.5c-5.649,8.541-18.646,7.076-25.875,1.125
		C54.542,93.813,73.816,93.02,77.625,103.5z"/>
</g>
<path fill-rule="evenodd" clip-rule="evenodd" fill="#19D263" d="M11.755,100.943c4.213,5.946,9.411,11.14,15.363,15.345
	c6.851,4.684,14.916,8.153,24.16,10.443C55.39,127.561,59.644,128,64,128c6.326,0,12.432-0.932,18.203-2.642
	c2.436-0.751,4.781-1.593,7.028-2.532C112.03,113.034,128,90.386,128,64c0-8.764-1.766-17.115-4.954-24.722
	c-0.111-0.263-0.229-0.521-0.343-0.781c-0.286-0.658-0.578-1.313-0.886-1.96c-0.091-0.192-0.185-0.381-0.276-0.572
	c-5.579-11.43-14.467-20.939-25.412-27.308C89.457,4.958,81.77,2.274,73.027,0.646C70.076,0.229,67.065,0,64,0
	c-2.117,0-4.208,0.109-6.272,0.31C42.4,2.857,30.048,8.378,20.688,16.893c-1.318,1.212-2.584,2.479-3.796,3.796
	C8.378,30.048,2.857,42.401,0.31,57.728C0.109,59.792,0,61.883,0,64c0,2.946,0.217,5.84,0.602,8.681
	C2.69,83.73,6.422,93.138,11.755,100.943z M27.562,91.125c6.35-1.971,12.137,1.314,12.375,7.312
	C35.546,96.638,29.062,93.943,27.562,91.125z M47.812,102.938c-4.049-8.343-8.917-20.533-23.062-15.188
	c-1.08-1.545-1.323-3.928-1.688-6.188c10.583-4.298,21.15,5.765,35.438,1.688c1.206,2.919,2.208,6.042,3.938,8.438
	C55.281,93.155,52.36,98.859,47.812,102.938z M60.75,81.562c2.925-0.497,6.289-1.008,8.438,0.562
	c-0.604,3.896-3.803,5.197-3.938,9.562C63.62,88.442,60.773,86.414,60.75,81.562z M51.75,104.625
	c2.792-10.812,22.066-11.605,25.875-1.125C71.976,112.041,58.979,110.576,51.75,104.625z M89.438,98.438
	c0.684-6.321,7.356-11.146,14.062-7.875C99.569,93.944,95.219,96.906,89.438,98.438z M105.75,87.188
	c-1.594-0.094-2.344-1.031-3.938-1.125c-14.459-2.459-14.331,9.669-19.688,16.312c-5.771-2.666-6.597-10.278-15.188-10.125
	c1.762-2.738,2.558-6.442,4.5-9c12.242,3.833,25.269-5.66,35.438-1.688C106.617,83.555,105.624,84.812,105.75,87.188z M105.75,42.75
	c2.959,12.114-6.041,21.459-17.438,17.438C79.097,49.562,96.321,31.275,105.75,42.75z M104.625,38.25
	c-11.226-3.521-20.062,3.522-20.812,14.062c-5.291-7.571-0.003-19.456,5.625-23.062C97.818,27.052,103.215,31.707,104.625,38.25z
	 M87.75,27.562c-12.912,7.694-10.51,38.564,7.875,36c5.749-0.802,8.677-5.536,11.812-10.125c2.485,3.748,1.656,11.045,1.125,16.312
	c-28.007,2.636-41.229-20.472-33.188-45C81.211,23.977,84.041,26.209,87.75,27.562z M73.125,23.062
	c-11.4,26.307,5.848,52.952,35.438,49.5c-0.05,5.077-4.501,3.632-8.438,2.812c-9.604,4.156-24.667,6.306-34.875,1.125
	c-5.026,1.485-10.827,3.402-16.875,3.375c-6.282-0.029-12.703-4.15-18.562-4.5c-3.858-0.229-8.711,2.724-8.438-2.812
	c30.963,3.569,46.07-23.882,35.438-49.5C62.059,20.072,67.999,19.791,73.125,23.062z M40.5,29.25
	c6.242,4.374,9.202,13.698,6.75,23.625c-2.5-9.572-9.824-18.8-22.5-14.625C26.975,32.344,31.75,26.856,40.5,29.25z M24.75,41.625
	c10.045-8.459,24.377,6.047,17.438,18C30.905,65.581,19.904,53.55,24.75,41.625z M21.938,52.875
	c3.637,5.861,8.728,12.071,16.875,10.688c14.664-2.491,14.512-29.066,3.375-36c3.701-1.361,6.622-3.503,12.375-2.812
	c7.891,24.545-5.195,47.516-33.188,45C20.346,64.519,20.684,57.509,21.938,52.875z"/>
</svg>
